<svg width="400" height="225" viewBox="0 0 400 225" fill="none" xmlns="http://www.w3.org/2000/svg">
  <rect width="400" height="225" fill="url(#gradient1)"/>
  <defs>
    <linearGradient id="gradient1" x1="0%" y1="0%" x2="100%" y2="100%">
      <stop offset="0%" style="stop-color:#1e293b;stop-opacity:1" />
      <stop offset="50%" style="stop-color:#334155;stop-opacity:1" />
      <stop offset="100%" style="stop-color:#475569;stop-opacity:1" />
    </linearGradient>
  </defs>
  
  <!-- E-commerce elements -->
  <rect x="30" y="30" width="340" height="40" rx="8" fill="#0f172a" opacity="0.8"/>
  <circle cx="50" cy="50" r="8" fill="#06b6d4"/>
  <rect x="70" y="45" width="100" height="10" rx="5" fill="#64748b"/>
  <rect x="320" y="45" width="30" height="10" rx="5" fill="#10b981"/>
  
  <!-- Product grid -->
  <rect x="30" y="90" width="100" height="80" rx="8" fill="#0f172a" opacity="0.6"/>
  <rect x="40" y="100" width="80" height="50" rx="4" fill="#1e293b"/>
  <rect x="40" y="155" width="60" height="8" rx="4" fill="#64748b"/>
  
  <rect x="150" y="90" width="100" height="80" rx="8" fill="#0f172a" opacity="0.6"/>
  <rect x="160" y="100" width="80" height="50" rx="4" fill="#1e293b"/>
  <rect x="160" y="155" width="60" height="8" rx="4" fill="#64748b"/>
  
  <rect x="270" y="90" width="100" height="80" rx="8" fill="#0f172a" opacity="0.6"/>
  <rect x="280" y="100" width="80" height="50" rx="4" fill="#1e293b"/>
  <rect x="280" y="155" width="60" height="8" rx="4" fill="#64748b"/>
  
  <!-- Shopping cart icon -->
  <circle cx="350" cy="200" r="15" fill="#06b6d4" opacity="0.8"/>
  <path d="M345 195h10l-2 8h-6z" fill="white"/>
  <circle cx="348" cy="205" r="2" fill="white"/>
  <circle cx="352" cy="205" r="2" fill="white"/>
</svg>