<svg width="400" height="225" viewBox="0 0 400 225" fill="none" xmlns="http://www.w3.org/2000/svg">
  <rect width="400" height="225" fill="url(#gradient2)"/>
  <defs>
    <linearGradient id="gradient2" x1="0%" y1="0%" x2="100%" y2="100%">
      <stop offset="0%" style="stop-color:#1e293b;stop-opacity:1" />
      <stop offset="50%" style="stop-color:#334155;stop-opacity:1" />
      <stop offset="100%" style="stop-color:#475569;stop-opacity:1" />
    </linearGradient>
  </defs>
  
  <!-- Header -->
  <rect x="20" y="20" width="360" height="40" rx="8" fill="#0f172a" opacity="0.8"/>
  <circle cx="40" cy="40" r="8" fill="#8b5cf6"/>
  <rect x="60" y="35" width="120" height="10" rx="5" fill="#64748b"/>
  <rect x="320" y="35" width="40" height="10" rx="5" fill="#10b981"/>
  
  <!-- Kanban columns -->
  <rect x="20" y="80" width="110" height="120" rx="8" fill="#0f172a" opacity="0.6"/>
  <rect x="30" y="90" width="90" height="15" rx="4" fill="#64748b"/>
  <rect x="30" y="115" width="90" height="30" rx="6" fill="#1e293b"/>
  <rect x="30" y="155" width="90" height="30" rx="6" fill="#1e293b"/>
  
  <rect x="145" y="80" width="110" height="120" rx="8" fill="#0f172a" opacity="0.6"/>
  <rect x="155" y="90" width="90" height="15" rx="4" fill="#64748b"/>
  <rect x="155" y="115" width="90" height="30" rx="6" fill="#1e293b"/>
  <rect x="155" y="155" width="90" height="30" rx="6" fill="#1e293b"/>
  
  <rect x="270" y="80" width="110" height="120" rx="8" fill="#0f172a" opacity="0.6"/>
  <rect x="280" y="90" width="90" height="15" rx="4" fill="#64748b"/>
  <rect x="280" y="115" width="90" height="30" rx="6" fill="#1e293b"/>
  
  <!-- Task indicators -->
  <circle cx="45" cy="130" r="4" fill="#06b6d4"/>
  <circle cx="45" cy="170" r="4" fill="#f59e0b"/>
  <circle cx="170" cy="130" r="4" fill="#10b981"/>
  <circle cx="170" cy="170" r="4" fill="#ef4444"/>
  <circle cx="295" cy="130" r="4" fill="#8b5cf6"/>
</svg>